#!OML:ASF E:\emotionWalksFemale\Project 1\Capture day 1\Session 1\Female1.ASF
:FULLY-SPECIFIED
:DEGREES
322
root 10.4308 14.2776 11.3113 384.303 -77.1833 -16.5762
lowerback 17.9011 1.25427 2.73478
upperback -2.99466 2.52098 1.80508
thorax -13.4435 1.0344 -0.265541
lowerneck -5.43743 -6.66215 -8.1441
upperneck -8.1452 -8.51511 4.8061
head -1.08244 -4.17497 2.83491
rclavicle 2.31087e-014 1.27222e-014
rhumerus 2.04664 43.8806 -65.6441
rradius 53.6628
rwrist 20.032
rhand -11.1902 -54.2473
rfingers 7.12502
rthumb 14.8372 276.304
lclavicle 2.31087e-014 1.27222e-014
lhumerus -18.3417 1.72437 43.8892
lradius 66.6083
lwrist 1.75856
lhand -12.653 -34.8559
lfingers 7.12502
lthumb 13.4277 -5.30866
rfemur -34.7487 6.61329 29.7822
rtibia 55.7415
rfoot -28.1879 -20.0249
rtoes 0.436491
lfemur -39.6336 -5.98967 -19.8386
ltibia 61.9792
lfoot -32.5708 6.43982
ltoes -27.9703
323
root 10.4134 14.3608 11.3002 384.343 -77.4615 -16.7086
lowerback 17.5589 1.21906 2.94656
upperback -3.15667 2.50632 1.74137
thorax -13.4163 1.00853 -0.444951
lowerneck -5.3308 -6.61344 -8.24056
upperneck -7.5388 -8.44379 4.73985
head -0.907656 -4.13744 2.81889
rclavicle 5.91384e-015 -9.14409e-015
rhumerus 4.5842 43.5912 -63.8467
rradius 54.3809
rwrist 18.3777
rhand -9.94995 -54.1979
rfingers 7.12502
rthumb 16.0318 276.445
lclavicle 5.91384e-015 -9.14409e-015
lhumerus -21.1338 1.22156 43.8958
lradius 65.2234
lwrist 0.853019
lhand -11.0606 -34.8473
lfingers 7.12502
lthumb 14.9621 -5.40781
rfemur -33.7346 6.61792 29.7106
rtibia 54.167
rfoot -28.1679 -19.3135
rtoes 1.18885
lfemur -38.7597 -5.8414 -19.7906
ltibia 60.6535
lfoot -32.1234 6.96476
ltoes -30.7527
324
root 10.3924 14.4486 11.2917 383.959 -77.8683 -16.3489
lowerback 17.0283 1.22041 3.09276
upperback -3.31664 2.49691 1.51388
thorax -13.2675 0.98524 -0.766384
lowerneck -5.12909 -6.56056 -8.27563
upperneck -6.99893 -8.37118 4.84267
head -0.765574 -4.10291 2.85479
rclavicle -1.03865e-014 -3.18055e-015
rhumerus 6.73751 43.0102 -62.5064
rradius 55.134
rwrist 16.9977
rhand -8.64867 -54.748
rfingers 7.12502
rthumb 17.2846 276.001
lclavicle -1.03865e-014 -3.18055e-015
lhumerus -23.8749 0.563767 43.7713
lradius 64.089
lwrist -0.0982629
lhand -9.56822 -34.1518
lfingers 7.12502
lthumb 16.3994 -4.82505
rfemur -32.7315 6.70389 29.4474
rtibia 52.5334
rfoot -28.1483 -18.4571
rtoes 2.97424
lfemur -37.8716 -5.68314 -19.8746
ltibia 59.2652
lfoot -31.7511 6.94615
ltoes -31.0742
325
root 10.3692 14.54 11.2839 383.638 -78.318 -16.0033
lowerback 16.3434 1.26948 3.29024
upperback -3.42168 2.54237 1.20717
thorax -12.9536 0.984041 -1.21305
lowerneck -5.02736 -6.562 -8.1721
upperneck -6.46813 -8.37239 4.93612
head -0.611096 -4.10803 2.85718
rclavicle -2.65378e-014 -1.90833e-014
rhumerus 8.51668 42.1187 -61.489
rradius 55.888
rwrist 15.8021
rhand -8.06903 -55.253
rfingers 7.12502
rthumb 17.8424 275.546
lclavicle -2.65378e-014 -1.90833e-014
lhumerus -26.3045 -0.343919 43.5106
lradius 63.0074
lwrist -0.792349
lhand -9.3524 -32.7006
lfingers 7.12502
lthumb 16.6072 -3.39114
rfemur -31.7233 7.21089 29.0991
rtibia 50.8373
rfoot -28.4814 -17.3739
rtoes 8.0024
lfemur -36.9835 -5.52273 -19.9277
ltibia 57.8079
lfoot -31.3581 6.20667
ltoes -28.9662
326
root 10.344 14.6332 11.2748 383.259 -78.7438 -15.6544
lowerback 15.9685 1.39978 3.17909
upperback -3.6567 2.67451 1.10737
thorax -12.9946 1.04786 -1.2874
lowerneck -4.91137 -6.61272 -8.26374
upperneck -5.82863 -8.43654 4.92023
head -0.417491 -4.14023 2.85446
rclavicle -2.42517e-014 -8.34896e-015
rhumerus 9.75096 41.3978 -60.4117
rradius 56.8895
rwrist 14.7779
rhand -7.5055 -55.594
rfingers 7.12502
rthumb 18.3846 275.255
lclavicle -2.42517e-014 -8.34896e-015
lhumerus -28.9273 -0.963624 43.6422
lradius 61.8969
lwrist -1.67822
lhand -8.27819 -31.8477
lfingers 7.12502
lthumb 17.6411 -2.62799
rfemur -30.5802 7.71479 28.7792
rtibia 49.0291
rfoot -28.8174 -16.2067
rtoes 11.7094
lfemur -36.0119 -5.37567 -19.9644
ltibia 56.3087
lfoot -30.8795 5.50469
ltoes -26.8461
327
root 10.3149 14.7285 11.2631 382.623 -79.0641 -15.0996
lowerback 15.4568 1.4549 3.24121
upperback -3.79639 2.72327 0.933239
thorax -12.8343 1.06119 -1.51264
lowerneck -4.60961 -6.64067 -8.51186
upperneck -5.44725 -8.47387 5.21078
head -0.318313 -4.15857 2.99747
rclavicle -5.06652e-014 -2.20651e-014
rhumerus 10.9343 40.7239 -59.4071
rradius 58.0706
rwrist 13.6652
rhand -7.26503 -55.8646
rfingers 7.12502
rthumb 18.6159 275.006
lclavicle -5.06652e-014 -2.20651e-014
lhumerus -31.457 -1.22252 43.7597
lradius 60.7952
lwrist -2.90479
lhand -6.25934 -31.5494
lfingers 7.12502
lthumb 19.583 -2.51564
rfemur -29.3084 7.76991 28.5603
rtibia 47.0336
rfoot -28.4986 -15.5379
rtoes 10.3081
lfemur -35.0141 -5.23454 -20.0085
ltibia 54.8051
lfoot -30.3781 5.46098
ltoes -26.6667
328
root 10.2844 14.8184 11.254 381.465 -79.2771 -14.0912
lowerback 15.0137 1.44539 3.24217
upperback -3.90148 2.67869 0.79548
thorax -12.6836 1.03739 -1.64002
lowerneck -4.32915 -6.59071 -8.8969
upperneck -5.1116 -8.4064 5.43232
head -0.23505 -4.12235 3.1473
rclavicle 5.01931e-014 9.93923e-015
rhumerus 12.0175 40.0031 -58.518
rradius 59.1915
rwrist 12.9619
rhand -7.24689 -55.9151
rfingers 7.12502
rthumb 18.6334 274.957
lclavicle 5.01931e-014 9.93923e-015
lhumerus -33.9768 -1.54724 43.8354
lradius 59.7537
lwrist -3.77999
lhand -4.61295 -30.7944
lfingers 7.12502
lthumb 21.1653 -1.92977
rfemur -27.8896 7.52401 28.404
rtibia 44.8309
rfoot -27.4748 -16.0377
rtoes 5.30046
lfemur -33.9914 -5.19828 -20.0995
ltibia 53.3235
lfoot -29.7527 5.79021
ltoes -28.0677
329
root 10.2547 14.9025 11.251 380.363 -79.3915 -13.2593
lowerback 14.7574 1.39341 3.29014
upperback -3.9625 2.59334 0.658546
thorax -12.5947 0.989356 -1.78867
lowerneck -4.39517 -6.6055 -8.81875
upperneck -4.59373 -8.42362 5.32922
head -0.0641034 -4.13376 3.08321
rclavicle 9.6659e-015 -1.63003e-014
rhumerus 12.8495 39.0816 -57.9553
rradius 60.2756
rwrist 12.9859
rhand -6.78004 -55.4435
rfingers 7.12502
rthumb 19.0824 275.473
lclavicle 9.6659e-015 -1.63003e-014
lhumerus -36.3519 -1.84274 43.829
lradius 58.6241
lwrist -4.23978
lhand -2.67538 -29.9355
lfingers 7.12502
lthumb 23.0255 -1.29088
rfemur -26.2523 7.19532 28.3668
rtibia 42.4541
rfoot -25.8695 -17.3358
rtoes -1.80069
lfemur -32.8792 -5.40798 -20.1105
ltibia 51.872
lfoot -29.0823 5.8814
ltoes -28.2932
330
root 10.2257 14.9915 11.2483 379.915 -79.4224 -13.0875
lowerback 14.4745 1.31175 3.45488
upperback -4.00482 2.48826 0.517837
thorax -12.4655 0.923972 -2.00139
lowerneck -4.45709 -6.61724 -8.48639
upperneck -4.11411 -8.44798 5.2216
head 0.082153 -4.1519 2.97289
rclavicle -1.17034e-014 -7.35503e-015
rhumerus 13.4289 38.2118 -57.5379
rradius 61.5197
rwrist 12.9987
rhand -6.33319 -54.6383
rfingers 7.12502
rthumb 19.512 276.321
lclavicle -1.17034e-014 -7.35503e-015
lhumerus -38.6278 -1.84131 43.7496
lradius 57.3994
lwrist -4.9184
lhand 0.261134 -29.9303
lfingers 7.12502
lthumb 25.8405 -1.66577
rfemur -24.5596 6.79482 28.4289
rtibia 39.9903
rfoot -24.4702 -17.8885
rtoes -6.98076
lfemur -31.8185 -5.85651 -19.8839
ltibia 50.4334
lfoot -28.3141 5.46907
ltoes -25.1544
331
root 10.1956 15.0822 11.2464 379.499 -79.4414 -12.9129
lowerback 14.1154 1.23119 3.57298
upperback -4.05965 2.37534 0.409299
thorax -12.3098 0.860655 -2.14847
lowerneck -4.35561 -6.5498 -8.524
upperneck -3.80151 -8.35979 5.5514
head 0.177859 -4.1095 3.09118
rclavicle 2.50469e-014 -2.28602e-015
rhumerus 13.885 37.4805 -57.0724
rradius 62.8807
rwrist 12.7254
rhand -6.19182 -54.5908
rfingers 7.12502
rthumb 19.6479 276.382
lclavicle 2.50469e-014 -2.28602e-015
lhumerus -40.9196 -1.81261 43.7637
lradius 56.0147
lwrist -6.33885
lhand 1.80987 -29.6731
lfingers 7.12502
lthumb 27.3227 -1.63313
rfemur -22.8665 6.60559 28.4015
rtibia 37.5284
rfoot -23.6665 -17.7954
rtoes -9.5868
lfemur -30.7992 -6.41158 -19.6305
ltibia 48.9578
lfoot -27.1577 5.32504
ltoes -21.69
332
root 10.1641 15.166 11.2461 378.584 -79.5296 -12.2712
lowerback 13.8135 1.30242 3.36952
upperback -4.11653 2.42841 0.480576
thorax -12.2007 0.90692 -1.95852
lowerneck -4.18293 -6.54903 -9.15476
upperneck -3.54425 -8.34334 5.99088
head 0.28186 -4.09685 3.35827
rclavicle -4.1869e-015 -1.21259e-014
rhumerus 14.1536 36.773 -56.2685
rradius 64.3479
rwrist 12.2829
rhand -5.99071 -55.3195
rfingers 7.12502
rthumb 19.8413 275.673
lclavicle -4.1869e-015 -1.21259e-014
lhumerus -43.0198 -1.89625 44.2059
lradius 54.7177
lwrist -6.56033
lhand 4.46471 -28.6118
lfingers 7.12502
lthumb 29.8593 -0.999185
rfemur -21.0949 6.92759 28.1974
rtibia 35.0953
rfoot -23.3154 -17.7192
rtoes -10.2695
lfemur -29.6758 -6.90816 -19.5555
ltibia 47.4339
lfoot -25.7016 5.74027
ltoes -21.6416
333
root 10.1319 15.2485 11.248 376.902 -79.6378 -10.856
lowerback 13.5433 1.35574 3.26156
upperback -4.19339 2.45759 0.365087
thorax -12.1229 0.925078 -2.02308
lowerneck -3.92995 -6.58948 -9.4041
upperneck -3.26296 -8.4092 6.14542
head 0.354052 -4.13105 3.45861
rclavicle -6.71147e-014 5.96354e-015
rhumerus 13.9974 35.942 -55.9647
rradius 65.929
rwrist 11.8173
rhand -5.39444 -55.8472
rfingers 7.12502
rthumb 20.4144 275.206
lclavicle -6.71147e-014 5.96354e-015
lhumerus -45.0293 -2.15478 44.5564
lradius 53.4283
lwrist -6.47503
lhand 6.88712 -27.5811
lfingers 7.12502
lthumb 32.1682 -0.409053
rfemur -19.3332 7.1542 27.8177
rtibia 32.6645
rfoot -23.3446 -17.2217
rtoes -9.80097
lfemur -28.5294 -7.56448 -19.5971
ltibia 45.8809
lfoot -24.6634 5.98981
ltoes -22.0186
334
root 10.0976 15.3266 11.2547 375.208 -79.6398 -9.43527
lowerback 13.2754 1.3557 3.14329
upperback -4.29341 2.41654 0.270198
thorax -12.078 0.910605 -2.04321
lowerneck -3.87069 -6.59227 -9.24
upperneck -2.73495 -8.42919 5.86024
head 0.493289 -4.14628 3.32197
rclavicle 3.33896e-014 1.53064e-014
rhumerus 13.5556 35.1589 -55.8498
rradius 67.6933
rwrist 11.1436
rhand -4.82766 -55.6483
rfingers 7.12502
rthumb 20.959 275.464
lclavicle 3.33896e-014 1.53064e-014
lhumerus -47.1723 -2.10222 44.8681
lradius 52.0066
lwrist -6.93445
lhand 8.34385 -27.3273
lfingers 7.12502
lthumb 33.5539 -0.445626
rfemur -17.4896 7.95318 27.457
rtibia 30.198
rfoot -23.0862 -17.5371
rtoes -10.8896
lfemur -27.4183 -8.45682 -19.5902
ltibia 44.3622
lfoot -24.3388 6.24446
ltoes -22.0705
